<svg width="180" height="30" fill="none" xmlns="http://www.w3.org/2000/svg">
    <g clip-path="url(#a)" fill="#FEFEFE">
        <path fill-rule="evenodd" clip-rule="evenodd" d="M20.353 14.105c-.009-2.107-.049-4.228.075-6.327.083-1.431.81-5.059.64-6.004-1.95-2.357-15.73-2.373-17.683 0-.17.936.555 4.574.64 6 .124 2.096.084 4.224.075 6.332-2.379-.332-3.87-.397-3.87.811 0 2.294 5.265 5.28 11.887 5.28 6.623 0 12.096-2.986 12.096-5.28 0-1.207-1.486-1.143-3.86-.812Zm-1.494.427a.082.082 0 0 1 .012.04c0 .367-2.87 1.21-6.537 1.21-3.668 0-6.746-.843-6.746-1.21 0-.014.005-.027.012-.04.209.385 3.196 1.17 6.734 1.17 3.535 0 6.328-.783 6.525-1.17Zm-.387-13.02-.568 12.208 1.316.043c-.008 0 .482-10.627 1.054-11.744-.887-.376-.26-.148-1.818-.658l.002.007c-.661-.168-1.522-.308-2.63-.463.007.027.01.054.008.081 1.086.153 1.97.297 2.63.465l.006.061ZM7.227 2.645c.034 2.044.15 8.717.208 10.475a75.328 75.328 0 0 1 2.161-.072L9.304 1.327c-1.718-.13-2.724.121-4.394.58.017.022.03.047.04.073a22.966 22.966 0 0 1 2.254-.51l.023 1.175ZM6.72 29.942c2.96.34 4.28-.85 5.601-1.958 1.32 1.108 2.64 2.297 5.6 1.958 8.815-1.08 6.346-8.528 3.8-8.32-.463.137-.264.829-.145 1.052.468-.707.667-.55.77-.294 2.08 6.063-4.991 1.764-7.103.737-1.445-.703-1.71-.608-2.922.219-1.214-.827-1.478-.922-2.923-.219-2.11 1.027-9.182 5.326-7.103-.737.103-.256.302-.413.77.294.12-.223.318-.915-.143-1.052-2.548-.208-5.015 7.24 3.798 8.32Z"/>
        <path d="M57.967 7.95V.657h-23.85v28.69h9.892v-9.182h12.24V12.87h-12.24V7.951h13.958Zm21.209 13.527a9.395 9.395 0 0 1-3.605.696c-4.233 0-6.999-2.869-6.999-7.173 0-4.426 2.766-7.172 7.125-7.172 2.6 0 4.736 1.065 6.58 3.156l6.33-5.451C85.631 1.967 80.98 0 75.194 0c-9.682 0-16.599 6.188-16.599 15 0 8.813 6.917 15.001 16.39 15.001 4.317 0 9.22-1.27 12.784-3.647V14.222h-8.594v7.255ZM114.72 7.95V.656h-23.85v28.69h9.892v-9.182h12.239V12.87h-12.239V7.951h13.958ZM131.905 30c9.558 0 16.556-6.31 16.556-15.001 0-8.689-6.998-15-16.556-15-9.556 0-16.556 6.311-16.556 15 0 8.69 7 15.001 16.556 15.001Zm0-7.828c-3.645 0-6.58-2.704-6.58-7.173 0-4.467 2.935-7.172 6.58-7.172 3.647 0 6.581 2.705 6.581 7.172 0 4.468-2.934 7.173-6.581 7.173Zm47.867 7.173-10.814-14.837L179.144.656h-10.647l-4.862 7.213-4.988-7.213H147.54l10.226 14.221-10.604 14.469h11.275l4.946-7.665 5.071 7.665h11.318Z"/>
    </g>
    <defs>
        <clipPath id="a">
            <path fill="#fff" d="M0 0h180v30H0z"/>
        </clipPath>
    </defs>
</svg>
